<?xml version="1.0" encoding="UTF-8"?>
<!DOCTYPE svg PUBLIC "-//W3C//DTD SVG 1.1//EN" "http://www.w3.org/Graphics/SVG/1.1/DTD/svg11.dtd">
<svg version="1.1" xmlns="http://www.w3.org/2000/svg" xmlns:xlink="http://www.w3.org/1999/xlink" x="0" y="0" width="1417.323" height="1417.323" viewBox="0, 0, 1417.323, 1417.323">
  <g id="Layer_1">
    <path d="M645.311,601.278 C585.388,601.278 537.45,649.216 537.45,709.139 L537.45,817 L573.404,817 L573.404,709.139 L573.427,707.283 C574.9,668.031 606.057,637.728 645.311,637.232 C661.272,637.357 677.529,642.521 689.942,652.763 C697.69,642.975 690.232,652.396 712.316,624.502 C693.531,609.127 669.366,601.581 645.311,601.278 z" fill="#000000"/>
    <path d="M811.634,601.278 C871.556,601.278 919.495,649.569 919.495,709.139 L919.495,817 L883.541,817 L883.541,789.497 C864.011,807.249 837.953,816.939 811.634,817 C752.064,817 703.773,769.062 703.773,709.139 C703.773,649.216 751.712,601.278 811.634,601.278 z M811.634,637.232 C771.921,637.232 739.727,669.426 739.727,709.139 C739.727,748.852 771.921,781.046 811.634,781.046 C851.348,781.046 883.542,748.852 883.541,709.139 C883.542,669.426 851.348,637.232 811.634,637.232 z" fill="#000000"/>
    <path d="M1053.995,601.278 C1078.051,601.581 1102.215,609.127 1121,624.502 C1102.08,648.401 1109.537,638.981 1098.626,652.764 C1086.214,642.52 1069.956,637.357 1053.995,637.232 C1014.282,637.232 982.088,669.426 982.088,709.139 C982.088,748.852 1014.282,781.046 1053.995,781.046 C1070.033,780.843 1086.111,775.76 1098.626,765.515 L1120.941,793.703 C1102.323,809.068 1077.936,816.811 1053.995,817 C994.425,817 946.135,769.062 946.135,709.139 C946.135,649.216 994.073,601.278 1053.995,601.278 z" fill="#000000"/>
    <path d="M510.987,708.86 C511.065,769 462.696,816.722 403.126,816.721 C343.556,816.722 295.266,768.783 295.266,708.86 C295.265,649.2 343.386,601 403.126,601 C462.865,601 510.908,648.721 510.987,708.86 z M403.126,636.953 C363.413,636.954 331.219,669.148 331.219,708.861 C331.219,748.574 363.413,780.768 403.126,780.768 C442.84,780.768 475.034,748.574 475.034,708.861 C475.034,669.148 442.84,636.954 403.126,636.953 z" fill="#000000"/>
  </g>
</svg>
