<?xml version="1.0" encoding="UTF-8"?>
<!DOCTYPE svg PUBLIC "-//W3C//DTD SVG 1.1//EN" "http://www.w3.org/Graphics/SVG/1.1/DTD/svg11.dtd">
<svg version="1.1" xmlns="http://www.w3.org/2000/svg" xmlns:xlink="http://www.w3.org/1999/xlink" x="0" y="0" width="1417.323" height="1417.323" viewBox="0, 0, 1417.323, 1417.323">
  <g id="Layer_1">
    <path d="M420,512 L420,692 L444,692 L444,512 L696,512 L696,608 L720,608 L720,512 L1008,512 L1008,716 L1032,716 L1032,512 L1284,512 L1284,620 L1320,620 L1320,656 L1284,656 L1284,800 L1032,800 L1032,752 L1008,752 L1008,800 L720,800 L720,644 L696,644 L696,800 L444,800 L444,728 L420,728 L420,800 L132,800 L132,620 L96,620 L96,584 L132,584 L132,512 L420,512 z M588,548 C528,548 480,595.999 480,656 L480,764 L516,764 L516,656 L516.024,654.142 C517.498,614.839 548.695,584.497 588,584 C603.982,584.125 620.26,589.296 632.688,599.552 C640.447,589.751 632.979,599.184 655.091,571.253 C636.282,555.859 612.086,548.303 588,548 z M864,548 C804,548 756,595.999 756,656 C756,716 804.353,764 864,764 C890.353,763.939 916.444,754.236 936,736.462 L936,764 L972,764 L972,656 C972,596.353 924,548 864,548 z M864,584 C903.765,584 936,616.235 936,656 C936,695.765 903.765,728 864,728 C824.236,728 792,695.765 792,656 C792,616.235 824.236,584 864,584 z M1176,548 C1116,548 1068,595.999 1068,656 C1068,716 1116.353,764 1176,764 C1199.972,763.811 1224.39,756.057 1243.033,740.672 L1220.688,712.448 C1208.157,722.707 1192.058,727.797 1176,728 C1136.236,728 1104,695.765 1104,656 C1104,616.235 1136.236,584 1176,584 C1191.981,584.126 1208.26,589.295 1220.688,599.552 C1231.614,585.751 1224.146,595.183 1243.091,571.253 C1224.282,555.859 1200.086,548.303 1176,548 z M276,548 C216,548 168,595.999 168,656 C168,716 216.354,764 276,764 C335.647,764 384,715.647 384,656 C384,596.353 336,548 276,548 z M276,584 C315.765,584 348,616.235 348,656 C348,695.765 315.765,728 276,728 C236.236,728 204,695.765 204,656 C204,616.235 236.236,584 276,584 z" fill="#FF0000"/>
  </g>
</svg>
