<?xml version="1.0" encoding="UTF-8"?>
<!DOCTYPE svg PUBLIC "-//W3C//DTD SVG 1.1//EN" "http://www.w3.org/Graphics/SVG/1.1/DTD/svg11.dtd">
<svg version="1.1" xmlns="http://www.w3.org/2000/svg" xmlns:xlink="http://www.w3.org/1999/xlink" x="0" y="0" width="1417.323" height="1417.323" viewBox="0, 0, 1417.323, 1417.323">
  <g id="Layer_1">
    <path d="M420,565 L420,745 L444,745 L444,565 L696,565 L696,661 L720,661 L720,565 L1008,565 L1008,769 L1032,769 L1032,565 L1284,565 L1284,673 L1320,673 L1320,709 L1284,709 L1284,853 L1032,853 L1032,805 L1008,805 L1008,853 L720,853 L720,697 L696,697 L696,853 L444,853 L444,781 L420,781 L420,853 L132,853 L132,673 L96,673 L96,637 L132,637 L132,565 L420,565 z M588,601 C528,601 480,648.999 480,709 L480,817 L516,817 L516,709 L516.024,707.142 C517.498,667.839 548.695,637.497 588,637 C603.982,637.125 620.26,642.296 632.688,652.552 C640.447,642.751 632.979,652.184 655.091,624.253 C636.282,608.859 612.086,601.303 588,601 z M864,601 C804,601 756,648.999 756,709 C756,769 804.353,817 864,817 C890.353,816.939 916.444,807.236 936,789.462 L936,817 L972,817 L972,709 C972,649.353 924,601 864,601 z M864,637 C903.765,637 936,669.235 936,709 C936,748.765 903.765,781 864,781 C824.236,781 792,748.765 792,709 C792,669.235 824.236,637 864,637 z M1176,601 C1116,601 1068,648.999 1068,709 C1068,769 1116.353,817 1176,817 C1199.972,816.811 1224.39,809.057 1243.033,793.672 L1220.688,765.448 C1208.157,775.707 1192.058,780.797 1176,781 C1136.236,781 1104,748.765 1104,709 C1104,669.235 1136.236,637 1176,637 C1191.981,637.126 1208.26,642.295 1220.688,652.552 C1231.614,638.751 1224.146,648.183 1243.091,624.253 C1224.282,608.859 1200.086,601.303 1176,601 z M276,601 C216,601 168,648.999 168,709 C168,769 216.354,817 276,817 C335.647,817 384,768.647 384,709 C384,649.353 336,601 276,601 z M276,637 C315.765,637 348,669.235 348,709 C348,748.765 315.765,781 276,781 C236.236,781 204,748.765 204,709 C204,669.235 236.236,637 276,637 z" fill="#000000"/>
  </g>
</svg>
