<?xml version="1.0" encoding="UTF-8"?>
<!DOCTYPE svg PUBLIC "-//W3C//DTD SVG 1.1//EN" "http://www.w3.org/Graphics/SVG/1.1/DTD/svg11.dtd">
<svg version="1.1" xmlns="http://www.w3.org/2000/svg" xmlns:xlink="http://www.w3.org/1999/xlink" x="0" y="0" width="1417.323" height="1417.323" viewBox="0, 0, 1417.323, 1417.323">
  <g id="Layer_1">
    <path d="M853,529 L853,709 L889,709 L889,745 L853,745 L853,889 L565,889 L565,637 L529,637 L529,601 L565,601 L565,529 L853,529 z M692.388,801.921 C676.69,801.921 664.131,814.479 664.131,830.178 L664.131,858.435 L673.55,858.435 L673.55,830.178 L673.556,829.691 C673.942,819.408 682.105,811.47 692.388,811.34 C696.57,811.372 700.829,812.725 704.081,815.409 C706.111,812.844 704.157,815.312 709.942,808.005 C705.021,803.977 698.69,802 692.388,801.921 z M735.961,801.921 C720.263,801.921 707.704,814.479 707.704,830.178 C707.704,845.876 720.355,858.435 735.961,858.435 C742.856,858.419 749.683,855.88 754.799,851.23 L754.799,858.435 L764.218,858.435 L764.219,830.178 C764.219,814.572 751.66,801.921 735.961,801.921 z M735.961,811.34 C746.365,811.34 754.799,819.774 754.799,830.178 C754.799,840.582 746.365,849.016 735.961,849.016 C725.557,849.016 717.123,840.582 717.123,830.178 C717.123,819.774 725.557,811.34 735.961,811.34 L735.961,811.34 z M799.454,801.921 C783.756,801.921 771.197,814.479 771.197,830.178 C771.197,845.876 783.849,858.435 799.454,858.435 C805.726,858.385 812.115,856.357 816.993,852.331 L811.147,844.947 C807.868,847.631 803.656,848.963 799.454,849.016 C789.051,849.016 780.616,840.582 780.616,830.178 C780.616,819.774 789.051,811.34 799.454,811.34 C803.636,811.373 807.895,812.725 811.147,815.409 C814.005,811.798 812.052,814.266 817.008,808.005 C812.087,803.977 805.756,802 799.454,801.921 z M628.941,801.848 C613.895,801.693 600.624,814.012 600.684,830.105 C600.684,845.803 613.335,858.362 628.941,858.362 C644.547,858.362 657.074,845.912 657.198,830.105 C657.323,814.298 643.987,802.003 628.941,801.848 z M628.941,811.267 L628.941,811.267 C639.345,811.267 647.779,819.701 647.779,830.105 C647.779,840.509 639.345,848.943 628.941,848.943 C618.537,848.943 610.103,840.509 610.103,830.105 C610.103,819.701 618.537,811.267 628.941,811.267 z M709,565 L708.999,565 C649,565 601,612.999 601,673 C601,733 649.353,781 709,781 C768.647,781 817,732.647 817,673 C817,613.353 768.999,565 709,565 z M712.705,601.094 C751.753,604.218 780.007,633.755 781,673 C781,712.765 748.764,745 709,745 C669.235,745 637,712.765 637,673 C637,633.235 669.235,601 709,601 L712.705,601.094 z" fill="#000000"/>
  </g>
</svg>
