<?xml version="1.0" encoding="UTF-8"?>
<!DOCTYPE svg PUBLIC "-//W3C//DTD SVG 1.1//EN" "http://www.w3.org/Graphics/SVG/1.1/DTD/svg11.dtd">
<svg version="1.1" xmlns="http://www.w3.org/2000/svg" xmlns:xlink="http://www.w3.org/1999/xlink" x="0" y="0" width="1417.323" height="1417.323" viewBox="0, 0, 1417.323, 1417.323">
  <g id="Layer_1">
    <path d="M853,565 L853,745 L889,745 L889,781 L853,781 L853,853 L565,853 L565,673 L529,673 L529,637 L565,637 L565,565 L853,565 z M708.999,601 C649,601 601,648.999 601,709 C601,769 649.353,817 709,817 C768.647,817 817,768.647 817,709 C817,649.353 768.999,601 709,601 z M709,637 C748.764,637 781,669.235 781,709 C781,748.765 748.764,781 709,781 C669.235,781 637,748.765 637,709 C637,669.235 669.235,637 709,637 z" fill="#FF0000"/>
  </g>
</svg>
