<?xml version="1.0" encoding="UTF-8"?>
<!DOCTYPE svg PUBLIC "-//W3C//DTD SVG 1.1//EN" "http://www.w3.org/Graphics/SVG/1.1/DTD/svg11.dtd">
<svg version="1.1" xmlns="http://www.w3.org/2000/svg" xmlns:xlink="http://www.w3.org/1999/xlink" x="0" y="0" width="1417.323" height="1417.323" viewBox="0, 0, 1417.323, 1417.323">
  <g id="Layer_1">
    <path d="M402,565 L402,745 L438,745 L438,565 L690,565 L690,661 L726,661 L726,565 L1014,565 L1014,769 L1050,769 L1050,565 L1302,565 L1302,673 L1338,673 L1338,709 L1302,709 L1302,853 L1050,853 L1050,805 L1014,805 L1014,853 L726,853 L726,697 L690,697 L690,853 L438,853 L438,781 L402,781 L402,853 L114,853 L114,673 L78,673 L78,637 L114,637 L114,565 L402,565 z M582,601 C522,601 474,648.999 474,709 L474,817 L510,817 L510,709 L510.024,707.142 C511.498,667.839 542.695,637.497 582,637 C597.982,637.125 614.26,642.296 626.688,652.552 C634.447,642.751 626.979,652.184 649.091,624.253 C630.282,608.859 606.087,601.303 582,601 z M870,601 C810,601 762,648.999 762,709 C762,769 810.353,817 870,817 C896.353,816.939 922.445,807.236 942,789.462 L942,817 L978,817 L978,709 C978,649.353 930,601 870,601 z M870,637 C909.765,637 942,669.235 942,709 C942,748.765 909.765,781 870,781 C830.236,781 798,748.765 798,709 C798,669.235 830.236,637 870,637 z M1194,601 C1134,601 1086,648.999 1086,709 C1086,769 1134.354,817 1194,817 C1217.972,816.811 1242.39,809.057 1261.033,793.672 L1238.688,765.448 C1226.157,775.707 1210.058,780.797 1194,781 C1154.236,781 1122,748.765 1122,709 C1122,669.235 1154.236,637 1194,637 C1209.981,637.126 1226.26,642.295 1238.688,652.552 C1249.614,638.751 1242.146,648.183 1261.091,624.253 C1242.283,608.859 1218.086,601.303 1194,601 z M258,601 C198,601 150,648.999 150,709 C150,769 198.353,817 258,817 C317.647,817 366,768.647 366,709 C366,649.353 318,601 258,601 z M258,637 C297.765,637 330,669.235 330,709 C330,748.765 297.765,781 258,781 C218.236,781 186,748.765 186,709 C186,669.235 218.236,637 258,637 z" fill="#000000"/>
  </g>
</svg>
